<svg xmlns="http://www.w3.org/2000/svg" viewBox="0 0 486.4847 236.57664" preserveAspectRatio="none"><defs><style>.a{fill:#fac493;}.a,.b,.c{fill-opacity:0.2;}.b{fill:#dfb8d8;}.c{fill:#8a8dc5;}</style></defs><path class="a" d="M554.068,459.9752a11.97443,11.97443,0,0,0-4.02136-8.23018,11.99821,11.99821,0,1,0-20.67569-9.3431l-48.527,2.57024a12.05865,12.05865,0,0,0-3.76119-6.61352,12.02054,12.02054,0,0,0-19.39668,4.88467,12.0258,12.0258,0,0,0,3.352,13.02136,11.99831,11.99831,0,1,0,20.67573,9.34337l48.52693-2.57025a12.05943,12.05943,0,0,0,3.7612,6.61352,12.02594,12.02594,0,0,0,17.01208-.87552,12.01508,12.01508,0,0,0,3.05394-8.80059Z" transform="translate(-67.60713 -343.58785)"/><path class="b" d="M353.54315,360.58331a6.18256,6.18256,0,0,0-2.72686-3.86652,6.19776,6.19776,0,1,0-11.312-3.06467l-24.53581,5.301a6.23622,6.23622,0,0,0-2.46266-3.06328,6.20941,6.20941,0,0,0-9.49,4.086,6.21577,6.21577,0,0,0,2.78025,6.36486,6.19774,6.19774,0,1,0,11.312,3.06467l24.53581-5.301a6.23552,6.23552,0,0,0,2.46293,3.06329,6.20827,6.20827,0,0,0,9.4363-6.58431Z" transform="translate(-67.60713 -343.58785)"/><path class="b" d="M309.20509,555.87826a11.06872,11.06872,0,0,0,7.00616,4.76084,11.096,11.096,0,1,0,20.886-1.99306l37.77718-24.34531a11.16309,11.16309,0,0,0,6.05641,3.58126,11.11556,11.11556,0,0,0,13.32674-12.82733,11.12817,11.12817,0,0,0-8.66862-8.9136,11.09657,11.09657,0,1,0-20.88707,1.99306l-37.77586,24.345a11.16711,11.16711,0,0,0-6.05747-3.58126,11.00725,11.00725,0,0,0-8.31473,1.45569,11.11042,11.11042,0,0,0-3.34875,15.52467Z" transform="translate(-67.60713 -343.58785)"/><path class="a" d="M404.35435,448.5684a6.35774,6.35774,0,0,0-1.16251-4.72587,6.37609,6.37609,0,1,0-9.68751-7.17553l-25.49073-4.11861a6.41526,6.41526,0,0,0-1.211-3.85739,6.38637,6.38637,0,0,0-11.57352,3.96822,6.39514,6.39514,0,0,0,1.22916,3.52788,6.37545,6.37545,0,1,0,9.68723,7.1758l25.48911,4.11834a6.43244,6.43244,0,0,0,1.2113,3.85766,6.38605,6.38605,0,0,0,10.64675-.39672A6.41449,6.41449,0,0,0,404.35435,448.5684Z" transform="translate(-67.60713 -343.58785)"/><path class="b" d="M532.48253,373.65711a5.53045,5.53045,0,0,0,.25742-4.23058,5.54632,5.54632,0,0,0,3.6257-3.55785,5.54855,5.54855,0,0,0-9.82028-4.91776l-20.12563-10.028a5.58837,5.58837,0,0,0-.00814-3.52091,5.56316,5.56316,0,1,0-10.54377,3.55267,5.55187,5.55187,0,1,0,6.19729,8.47563l20.12559,10.028a5.58843,5.58843,0,0,0,.00814,3.52084,5.49,5.49,0,0,0,2.75045,3.20487,5.55851,5.55851,0,0,0,7.53323-2.52688Z" transform="translate(-67.60713 -343.58785)"/><path class="c" d="M107.87921,555.1183a7.043,7.043,0,0,0,2.2868-4.8836,7.06366,7.06366,0,1,0-3.35635-12.92814l-19.1078-21.29245a7.1089,7.1089,0,0,0,1.641-4.16821,7.0768,7.0768,0,0,0-9.40545-7.08557,7.08365,7.08365,0,0,0-4.72964,6.34769,7.06361,7.06361,0,1,0,3.35659,12.92842L97.672,545.3289a7.10735,7.10735,0,0,0-1.64078,4.1682,7.00521,7.00521,0,0,0,1.75242,5.07977,7.07314,7.07314,0,0,0,10.0956.54143Z" transform="translate(-67.60713 -343.58785)"/><path class="a" d="M134.91985,377.85138s5.8816,21.95013,30.97238,17.5142a2.43281,2.43281,0,0,0,1.159-.53817,2.49222,2.49222,0,0,0,.73652-1.05709,2.58263,2.58263,0,0,0-.41108-2.48786c-4.88033-5.93309-15.78182-17.899-22.96629-15.974,7.18447-1.925,10.64243-17.73868,11.90248-25.31707a2.58248,2.58248,0,0,0-.888-2.3602,2.49473,2.49473,0,0,0-1.16657-.54722,2.43426,2.43426,0,0,0-1.27279.1136C129.03825,355.90136,134.91985,377.85138,134.91985,377.85138ZM68.48544,395.65254c1.29819,4.84484,21.36928,20.26382,39.71478,15.34827,18.3453-4.91557,28.01925-28.29972,26.71963-33.14943s-21.36914-20.2639-39.71465-15.34826C76.8598,367.41868,67.18465,390.798,68.48544,395.65254Zm17.68177-9.93572a5.09961,5.09961,0,0,1,.07777-2.90869,4.93751,4.93751,0,0,1,1.651-2.357,4.81307,4.81307,0,0,1,2.66776-1.01048,4.87964,4.87964,0,0,1,2.78534.67609,5.0561,5.0561,0,0,1,1.964,2.13532,5.1244,5.1244,0,0,1,.48085,2.87428,4.99794,4.99794,0,0,1-1.16461,2.64476,4.83266,4.83266,0,0,1-6.1534,1.00234A5.07706,5.07706,0,0,1,86.16721,385.71682Z" transform="translate(-67.60713 -343.58785)"/><path class="c" d="M474.22938,534.1412s-11.79844,12.79943-27.24425.86361a1.85694,1.85694,0,0,1-.59343-.77744,1.91419,1.91419,0,0,1-.12464-.979,1.98555,1.98555,0,0,1,1.16519-1.54187c5.42229-2.289,17.0744-6.52871,21.26373-2.66671-4.18933-3.862-.91049-15.82058.93218-21.41033a1.97165,1.97165,0,0,1,1.4416-1.28527,1.91161,1.91161,0,0,1,.98636.04363,1.84515,1.84515,0,0,1,.82108.52977C486.02783,521.342,474.22938,534.1412,474.22938,534.1412Zm38.73917,35.71153c-2.6041,2.82576-21.70813,6.14526-32.40367-3.71594-10.69826-9.86147-8.94232-29.16766-6.3355-31.99559s21.70814-6.14526,32.40368,3.7162C517.33135,547.71889,515.57809,567.02208,512.96855,569.85273Zm-8.46267-13.03112a3.89378,3.89378,0,0,0,.98366-2.00118,3.77746,3.77746,0,0,0-.2818-2.18626,3.69265,3.69265,0,0,0-1.44976-1.63454,3.74615,3.74615,0,0,0-2.13261-.5322,3.90241,3.90241,0,0,0-3.43871,2.52877,3.82368,3.82368,0,0,0-.15176,2.20875,3.70065,3.70065,0,0,0,3.81812,2.86913A3.886,3.886,0,0,0,504.50588,556.82161Z" transform="translate(-67.60713 -343.58785)"/><path class="c" d="M453.48154,380.02951s-8.92878,14.58193,6.49265,25.97417a1.82892,1.82892,0,0,0,.89425.3539,1.86916,1.86916,0,0,0,.95656-.14606,1.92882,1.92882,0,0,0,.76957-.60645,1.95836,1.95836,0,0,0,.37667-.9067c.70725-5.73717,1.58793-17.88517-3.184-20.808,4.77194,2.92278,15.19379-3.38371,19.982-6.62273a1.939,1.939,0,0,0,.82647-1.70744,1.8505,1.8505,0,0,0-.30621-.92,1.81988,1.81988,0,0,0-.72078-.63572C462.413,365.44758,453.48154,380.02951,453.48154,380.02951Zm-44.13437-27.02616c-1.97,3.21858.01624,22.15911,12.2022,29.62214,12.18863,7.46331,29.95944.626,31.93217-2.596,1.97274-3.22167-.01356-22.15905-12.2022-29.62214C429.09342,342.94425,411.32258,349.77829,409.34717,353.00335Zm14.58408,4.5a3.8426,3.8426,0,0,1,1.62587-1.46461,3.72243,3.72243,0,0,1,2.14346-.32027,3.61889,3.61889,0,0,1,1.93208.932,3.66951,3.66951,0,0,1,1.07578,1.87016,3.78742,3.78742,0,0,1-.149,2.178,3.85258,3.85258,0,0,1-1.31966,1.75161,3.76235,3.76235,0,0,1-2.04591.7349,3.63435,3.63435,0,0,1-3.7341-2.83824A3.8172,3.8172,0,0,1,423.93125,357.50331Z" transform="translate(-67.60713 -343.58785)"/><path class="a" d="M224.53867,558.15989S220.33578,573.83712,237.44,580.0561a1.72974,1.72974,0,0,0,.90887.08127,1.79009,1.79009,0,0,0,.83326-.39019,1.84282,1.84282,0,0,0,.63463-1.68548c-.89939-5.41418-3.368-16.70887-8.49954-18.08462,5.13154,1.37575,12.91895-7.17038,16.40536-11.40769a1.8445,1.8445,0,0,0,.294-1.77708,1.78257,1.78257,0,0,0-.52624-.75521,1.7395,1.7395,0,0,0-.82784-.38426C228.74154,542.48238,224.53867,558.15989,224.53867,558.15989Zm-47.45036-12.72c-.92756,3.46041,5.97916,20.16709,19.08235,23.67952,13.10294,3.51189,27.43936-7.49556,28.368-10.95948s-5.97916-20.16709-19.08237-23.67951C192.35339,530.96767,178.01777,541.97241,177.08831,545.43985Zm14.48574.17045a3.64264,3.64264,0,0,1,1.08716-1.77138,3.52486,3.52486,0,0,1,1.863-.868,3.44,3.44,0,0,1,2.01121.32761,3.48665,3.48665,0,0,1,1.48117,1.41343,3.61063,3.61063,0,0,1,.45225,2.022,3.659,3.659,0,0,1-.72946,1.94969,3.57061,3.57061,0,0,1-1.6649,1.22,3.45136,3.45136,0,0,1-4.16414-1.57791A3.62654,3.62654,0,0,1,191.57405,545.6103Z" transform="translate(-67.60713 -343.58785)"/><path class="b" d="M265.02622,484.37381s4.80391,17.15136-13.88768,24.18516a1.90719,1.90719,0,0,1-.99667.10028,1.956,1.956,0,0,1-.91916-.4184,2.02434,2.02434,0,0,1-.71674-1.84212c.92051-5.95069,3.49048-18.37536,9.10436-19.94787-5.61388,1.57251-14.2638-7.70934-18.14151-12.31627a2.02437,2.02437,0,0,1-.34415-1.94644,1.9514,1.9514,0,0,1,.568-.83488,1.9042,1.9042,0,0,1,.90344-.43194C260.222,467.22219,265.02622,484.37381,265.02622,484.37381Zm51.91094-14.5402c1.06033,3.78585-6.31355,22.20268-20.64835,26.21778s-30.20116-7.88794-31.26259-11.67758,6.31327-22.20267,20.64834-26.21778C300.00936,454.141,315.87464,466.04045,316.93716,469.83361Zm-15.8932.36474a3.99594,3.99594,0,0,0-1.21453-1.93018,3.86952,3.86952,0,0,0-2.05512-.92972,3.77453,3.77453,0,0,0-2.20278.3845,3.826,3.826,0,0,0-1.608,1.569,3.96142,3.96142,0,0,0-.47124,2.22447,4.01628,4.01628,0,0,0,.82433,2.13043,3.91688,3.91688,0,0,0,1.84211,1.318,3.78739,3.78739,0,0,0,4.54974-1.7825A3.97963,3.97963,0,0,0,301.044,470.19835Z" transform="translate(-67.60713 -343.58785)"/><path class="c" d="M261.393,393.602s-8.822,9.69238,1.14732,20.48927a1.4011,1.4011,0,0,0,.62218.39509,1.437,1.437,0,0,0,.74248.02819,1.48932,1.48932,0,0,0,1.07958-.97445c1.35949-4.21724,3.77175-13.23625.5994-16.1238,3.17235,2.88755,11.92525-.36013,15.99617-2.10931a1.48953,1.48953,0,0,0,.869-1.16629,1.43772,1.43772,0,0,0-.09782-.73651,1.402,1.402,0,0,0-.45145-.58234C270.21522,383.90935,261.393,393.602,261.393,393.602Zm-29.33567-26.7012c-1.94725,2.13937-3.17912,16.68472,4.9218,24.05807s22.46471,4.78468,24.41387,2.64313,3.17912-16.685-4.92181-24.05835C248.3705,362.17031,234.0086,364.75708,232.05728,366.9008Zm10.33082,5.48733a2.94339,2.94339,0,0,1,1.43619-.8685,2.84848,2.84848,0,0,1,1.65839.06721,2.77866,2.77866,0,0,1,1.32157.98012,2.81481,2.81481,0,0,1,.53924,1.56274,2.91431,2.91431,0,0,1-.42463,1.61829,2.95171,2.95171,0,0,1-1.24542,1.1289,2.88351,2.88351,0,0,1-1.64647.25851,2.787,2.787,0,0,1-2.40331-2.67456A2.929,2.929,0,0,1,242.3881,372.38813Z" transform="translate(-67.60713 -343.58785)"/><path class="b" d="M147.04187,466.26838s-3.70592,13.82373-19.50807,11.02805a1.53354,1.53354,0,0,1-.72974-.33872,1.57261,1.57261,0,0,1-.46392-.66581,1.62728,1.62728,0,0,1,.25906-1.56708c3.07426-3.73625,9.94087-11.27191,14.46541-10.05874-4.52454-1.21317-6.70132-11.17274-7.4942-15.94576a1.6266,1.6266,0,0,1,.5593-1.48659,1.57256,1.57256,0,0,1,.73489-.34443,1.53187,1.53187,0,0,1,.80156.07155C150.74778,452.44438,147.04187,466.26838,147.04187,466.26838Zm41.83972,11.2161c-.81809,3.05123-13.46008,12.76068-25.01382,9.66339-11.55373-3.097-17.6448-17.82528-16.8259-20.87949.81862-3.05447,13.46007-12.76095,25.01382-9.66365S189.701,474.427,188.88159,477.48448Zm-11.13534-6.25907a3.213,3.213,0,0,0-.04878-1.83182,3.10964,3.10964,0,0,0-1.03974-1.48443,3.03205,3.03205,0,0,0-1.68008-.63679,3.07292,3.07292,0,0,0-1.75432.4257,3.18372,3.18372,0,0,0-1.237,1.34459,3.22769,3.22769,0,0,0-.30322,1.81042,3.15061,3.15061,0,0,0,.73327,1.6657,3.0437,3.0437,0,0,0,3.87554.63165A3.19756,3.19756,0,0,0,177.74625,471.22541Z" transform="translate(-67.60713 -343.58785)"/></svg>