<svg xmlns="http://www.w3.org/2000/svg" viewBox="0 0 1868.65407 1030.25481" preserveAspectRatio="none"><defs><style>.a{fill:#dfb8d8;}.b{fill:#fac493;}</style></defs><path class="a" d="M-288.60391,522.68933a968.0578,968.0578,0,0,1,167.08558,24.433c.00442-6.75048.04545-69.38745.0639-138.77493.01137-42.74573.01137-146.90906,0-189.6548H-1989.20361q-.44825,515.12739-.89637,1030.25481c45.04456-21.88709,120.14637-52.725,215.36231-63.14441,187.80774-20.55176,257.04822,53.91955,431.464,48.44433,75.13623-2.35864,258.20447-8.46606,374.51178-140.95935,72.10974-82.145,89.38336-179.67944,94.21429-234.145,14.9198-107.85932,58.72187-170.61451,86.369-202.41108C-653.31726,501.63-409.44681,515.71161-288.60391,522.68933Z" transform="translate(1990.09998 -218.69258)"/><path class="b" d="M-121.47829,407.3511q.01193-94.32924.02386-188.65852h-1868.5817q.0119,457.24335.02392,914.48674c36.62122-36.75513,93.14331-81.37829,169.2649-95.5448,114.55395-21.319,189.82189,35.93848,307.02343,83.62293,134.88709,54.88,359.88416,73.11193,500.89234-11.96033,179.78589-108.46747,101.45135-320.80249,265.26312-506.076C-660.74768,505.02557-490.94754,397.512-121.47829,407.3511Z" transform="translate(1990.09998 -218.69258)"/></svg>