<svg xmlns="http://www.w3.org/2000/svg" viewBox="0 0 202.30924 210.4979"><defs><style>.a{fill:#444;}</style></defs><path class="a" d="M231.19383,416.7353c13.703,0,24.81153-13.19391,24.81153-29.46965s-11.10853-29.46988-24.81153-29.46988c-13.70295,0-24.81143,13.19414-24.81143,29.46988S217.49088,416.7353,231.19383,416.7353Z" transform="translate(-206.3824 -315.69605)"/><path class="a" d="M277.00019,370.42538c13.70305,0,24.81125-12.25149,24.81125-27.36462s-11.1082-27.36471-24.81125-27.36471-24.81162,12.25162-24.81162,27.36471S263.29715,370.42538,277.00019,370.42538Z" transform="translate(-206.3824 -315.69605)"/><path class="a" d="M338.07432,370.42538c13.703,0,24.81124-12.25149,24.81124-27.36462s-11.1082-27.36471-24.81124-27.36471-24.81173,12.25162-24.81173,27.36471S324.37127,370.42538,338.07432,370.42538Z" transform="translate(-206.3824 -315.69605)"/><path class="a" d="M383.8804,416.7353c13.703,0,24.81123-13.19391,24.81123-29.46965s-11.10819-29.46988-24.81123-29.46988-24.81173,13.19414-24.81173,29.46988S370.17734,416.7353,383.8804,416.7353Z" transform="translate(-206.3824 -315.69605)"/><path class="a" d="M362.4241,445.14619c-8.92759-11.57109-16.41879-21.44088-25.449-33.012-4.72006-6.12562-10.77438-12.25173-17.95779-14.97422a19.235,19.235,0,0,0-3.38626-1.02118,46.77727,46.77727,0,0,0-8.00421-.45375,38.99433,38.99433,0,0,0-8.10632.56743,19.22009,19.22009,0,0,0-3.38626,1.02069c-7.1834,2.723-13.13514,8.84861-17.95779,14.9747-8.9276,11.57111-16.4188,21.4404-25.449,33.0115-13.44269,14.861-29.9639,31.31017-26.88539,54.33869,2.97587,11.57109,10.46683,23.029,23.90953,26.31891,7.4912,1.70134,31.40072-4.99173,56.84924-4.99173h1.84727c25.44852,0,49.358,6.57986,56.84924,4.99173,13.44246-3.28992,20.93366-14.861,23.90953-26.31891,3.181-23.1422-13.34034-39.59135-26.7828-54.45189Z" transform="translate(-206.3824 -315.69605)"/></svg>