<svg xmlns="http://www.w3.org/2000/svg" viewBox="0 0 1868.09448 1064.06275" preserveAspectRatio="none"><defs><style>.a{fill:#dfb8d8;}.b{fill:#fac493;}</style></defs><path class="a" d="M1015.64563-95.266a1487.8906,1487.8906,0,0,0,216.40161-59.40766V369.37414c-1.72217,70.14774-15.37842,264.5499-147.95312,399.50327-16.21631,16.50745-46.71241,48.1538-93.93677,71.41134C870.8429,899.05,767.869,857.608,609.80408,825.25018c-72.60962-14.86409-327.981-65.17942-593.44263-23.36516C-103.128,820.70647-209.87024,846.3718-209.87024,846.3718c-101.04443,24.29545-141.42383,40.09261-218.27368,51.90138a953.40814,953.40814,0,0,1-207.55786,9.06208q-.17286-496.364-.34546-992.72794A2102.60577,2102.60577,0,0,0-174.628-49.5435C3.59851-55.45438,8.26062-78.5856,188.02454-92.79454,565.817-122.65613,690.33679-31.96158,1015.64563-95.266Z" transform="translate(636.04724 154.67368)"/><path class="b" d="M-635.70178-141.79492C-336.00586-36.97907-177.57065-45.746-87.44211-78.12631c22.0325-7.91558,100.2861-38.90724,211.45264-53.78264a951.088,951.088,0,0,1,163.70526-7.41448c216.312,8.24,354.85019,80.49175,520.67368,106.6708,96.02819,15.16026,238.6596,20.78258,423.64752-33.57076l.01025,900.23773c-202.05127,49.546-368.53638,60.50421-485.12305,60.66468-34.09082.04681-93.36157-.38825-167.12329-6.6941-185.0415-15.81909-337.4851-54.55133-363.21777-61.00421-129.29419-32.4223-368.60254-62.4096-852.28491-48.18884Z" transform="translate(636.04724 154.67368)"/></svg>