<svg xmlns="http://www.w3.org/2000/svg" viewBox="0 0 72.3981 63.4602"><defs><style>.a{fill:#dfb8d8;}</style></defs><path class="a" d="M245.50874,428.799a13.854,13.854,0,1,0-13.854-13.854A13.85407,13.85407,0,0,0,245.50874,428.799Z" transform="translate(-222.71674 -401.09095)"/><path class="a" d="M252.26194,433.26775h-13.5064a16.26742,16.26742,0,0,0-11.33521,4.5871,15.46734,15.46734,0,0,0-4.70359,11.0544v13.1719a2.43927,2.43927,0,0,0,.74174,1.7464,2.56564,2.56564,0,0,0,1.79071.7233h40.51915a2.56549,2.56549,0,0,0,1.7907-.7233,2.439,2.439,0,0,0,.7418-1.7464v-13.1719a15.46755,15.46755,0,0,0-4.7036-11.0544A16.26746,16.26746,0,0,0,252.26194,433.26775Z" transform="translate(-222.71674 -401.09095)"/><path class="a" d="M274.55744,433.26785a12.51326,12.51326,0,1,0-12.5133-12.5132A12.51314,12.51314,0,0,0,274.55744,433.26785Z" transform="translate(-222.71674 -401.09095)"/><path class="a" d="M295.11484,450.23345v12.0624a2.29857,2.29857,0,0,1-.6534,1.5888,2.2102,2.2102,0,0,1-1.5578.6665h-21.2417v-16.2313a19.71964,19.71964,0,0,0-4.255-12.2332,11.291,11.291,0,0,1,1.8762-.1367h11.7935a13.89016,13.89016,0,0,1,9.91759,4.1785A14.45217,14.45217,0,0,1,295.11484,450.23345Z" transform="translate(-222.71674 -401.09095)"/></svg>