<svg xmlns="http://www.w3.org/2000/svg" viewBox="0 0 62 53"><defs><style>.a{fill:#dfb8d8;}</style></defs><path class="a" d="M258.91579,459.32105a2.07346,2.07346,0,0,1-1.5223-.6211l-21.58931-20.7721a11.41818,11.41818,0,0,1-.95145-.8972q-.60546-.621-1.9202-2.2601a30.52488,30.52488,0,0,1-2.35268-3.3642,20.87146,20.87146,0,0,1-1.851-4.1751,15.07827,15.07827,0,0,1-.81306-4.7618q0-7.591,4.394-11.86975,4.394-4.27864,12.14393-4.27865a13.8243,13.8243,0,0,1,4.3767.74186,17.73443,17.73443,0,0,1,4.1518,2.0013q1.92015,1.25945,3.3041,2.36361a31.84389,31.84389,0,0,1,2.6295,2.34635,31.84389,31.84389,0,0,1,2.6295-2.34635q1.3839-1.10416,3.3041-2.36361a17.73443,17.73443,0,0,1,4.1518-2.0013,13.8243,13.8243,0,0,1,4.3767-.74186q7.7499,0,12.1439,4.27865t4.394,11.86975q0,7.6257-7.923,15.5274L260.43809,458.7A2.07346,2.07346,0,0,1,258.91579,459.32105Z" transform="translate(-227.91579 -406.32105)"/></svg>