<svg xmlns="http://www.w3.org/2000/svg" viewBox="0 0 58.0001 54.71701"><defs><style>.a{fill:#dfb8d8;}.b{fill:#fff;}</style></defs><path class="a" d="M237.029,431.5415a7.68139,7.68139,0,1,0-7.11321-7.6604A7.402,7.402,0,0,0,237.029,431.5415Z" transform="translate(-229.91574 -405.2774)"/><path class="a" d="M250.161,419.5038a7.1132,7.1132,0,1,0-7.1132-7.11319A7.11321,7.11321,0,0,0,250.161,419.5038Z" transform="translate(-229.91574 -405.2774)"/><path class="a" d="M267.67054,419.5038a7.1132,7.1132,0,1,0-7.1132-7.11319A7.11321,7.11321,0,0,0,267.67054,419.5038Z" transform="translate(-229.91574 -405.2774)"/><path class="a" d="M280.80264,431.5415a7.68139,7.68139,0,1,0-7.1132-7.6604A7.402,7.402,0,0,0,280.80264,431.5415Z" transform="translate(-229.91574 -405.2774)"/><path class="a" d="M274.65154,438.9268c-2.5595-3.0078-4.7071-5.5733-7.296-8.5811a12.48269,12.48269,0,0,0-5.1483-3.8925,5.95247,5.95247,0,0,0-.9708-.2654,14.77875,14.77875,0,0,0-2.2947-.1179,12.31617,12.31617,0,0,0-2.3241.1474,5.95247,5.95247,0,0,0-.9708.2654,12.6758,12.6758,0,0,0-5.1484,3.8925c-2.5594,3.0078-4.707,5.5732-7.2959,8.581-3.85387,3.863-8.59034,8.1388-7.70777,14.1249a9.248,9.248,0,0,0,6.85467,6.8413c2.1476.4423,9.0022-1.2975,16.2981-1.2975h.5296c7.2959,0,14.1505,1.7103,16.2981,1.2975a9.29214,9.29214,0,0,0,6.8546-6.8413C283.24184,447.0655,278.50544,442.7897,274.65154,438.9268Z" transform="translate(-229.91574 -405.2774)"/><path class="b" d="M260.43724,442.4815h6.4248v3.6357h-6.4248v6.3916h-3.6358v-6.3916h-6.4248v-3.6357h6.4248v-6.4746h3.6358Z" transform="translate(-229.91574 -405.2774)"/></svg>