<svg xmlns="http://www.w3.org/2000/svg" viewBox="0 0 85 63.66098"><defs><style>.a{fill:#dfb8d8;}</style></defs><path class="a" d="M334.06551,418.88272a1.59856,1.59856,0,0,0-2.1332.73,14.89755,14.89755,0,0,1-7.4218,7.1996c-6.9955-2.5525-8.0988,3.8007-15.8834,2.5291a20.06547,20.06547,0,0,1-3.2218,3.5444c-.5142.6372-1.1068,1.3101-1.7901,2.0039l-10.7034,9.2296a1.86943,1.86943,0,0,0,2.4565,2.8186l.0034-.003c.0472-.0243.0952-.0463.141-.0746l10.3441-6.4592a13.69089,13.69089,0,0,0,5.7518,1.9807c4.4067.0601,10.5501-5.8314,10.81519-5.8922-.21379,1.4219.09531,5.7859-.86519,8.0755a1.9798,1.9798,0,0,0,1.0726,2.5947,1.9989,1.9989,0,0,0,2.6087-1.0657,23.2808,23.2808,0,0,0,2.0998-8.7988c.0199-.0108.039-.0239.0581-.0365.6301,2.0102.581,4.5605,1.06329,7.5902a1.99779,1.99779,0,0,0,2.19461,1.6606c.03-.0041.06-.0082.0904-.013a1.98565,1.98565,0,0,0,1.6569-2.2706c-.7328-4.5974-2.11631-11.223-2.2029-11.4778a11.3784,11.3784,0,0,0-2.1508-3.9421c-.0432-.0697-.0874-.1425-.1275-.2029a18.136,18.136,0,0,0,6.8788-7.598A1.57986,1.57986,0,0,0,334.06551,418.88272Zm-26.3227,9.1102c-.6555-2.1698-2.4152-5.1014-5.0899-5.9813a3.25206,3.25206,0,0,0-1.9768-3.659c-1.493-.6994-3.1803-.1958-2.4613.4103,2.0578,1.7357,1.0039,3.5322.9304,3.5982a6.60514,6.60514,0,0,1-2.8303,2.6667c-1.2088.4469-4.5942,1.2619-4.5563,2.7947a3.17628,3.17628,0,0,0,.9275,2.6697c1.0009,1.1455,3.4259.1891,5.1026.4584.7707.1227,2.5368,1.7864,3.5126,2.835a11.382,11.382,0,0,0,1.4019-.7543A17.35338,17.35338,0,0,0,307.74281,427.99292Zm-8.4449-.8348a1.21232,1.21232,0,1,1,1.2188-1.2123A1.21556,1.21556,0,0,1,299.29791,427.15812Zm32.3205-10.2692c.0469,0,.0934.0007.14029.0041a.37305.37305,0,1,0,.04881-.7445c-.0668-.0049-.1298-.006-.1891-.006a3.03026,3.03026,0,0,0-2.3413,1.1108,3.82717,3.82717,0,0,0-.666,1.096.3719.3719,0,0,0,.225.4778.375.375,0,0,0,.48-.2242h-.0007a2.67665,2.67665,0,0,1,.12149-.26A2.51045,2.51045,0,0,1,331.61841,416.88892Zm.0837-2.4713c-.1954-.0167-.3822-.0238-.5607-.0238a4.0412,4.0412,0,0,0-3.6022,1.7998,4.44452,4.44452,0,0,0-.6747,1.7935.37371.37371,0,0,0,.3342.4103.3428.3428,0,0,0,.039.0019.37572.37572,0,0,0,.3732-.3343h-.0008a2.76578,2.76578,0,0,1,.0968-.4454,3.28618,3.28618,0,0,1,3.4345-2.4802c.1583,0,.32249.0067.4962.0217a.37315.37315,0,1,0,.0645-.7435Zm6.0252,3.8242a.376.376,0,0,0-.5291.0321.37137.37137,0,0,0,.033.5263h-.0008a1.29817,1.29817,0,0,1,.1118.1138,2.50084,2.50084,0,0,1,.666,1.6223,2.77333,2.77333,0,0,1-.7688,1.8076.37323.37323,0,0,0,.2858.6137.37806.37806,0,0,0,.2873-.1325,3.52234,3.52234,0,0,0,.9458-2.2888A3.26833,3.26833,0,0,0,337.72731,418.24182Z" transform="translate(-255.75831 -389.08724)"/><path class="a" d="M339.11371,417.46062a.40315.40315,0,0,0-.1222.5666s.0498.0741.1368.2341a6.70518,6.70518,0,0,1,.793,3.0921,5.89946,5.89946,0,0,1-1.0912,3.4021.40352.40352,0,0,0,.1129.5682.42436.42436,0,0,0,.5814-.1114,6.70925,6.70925,0,0,0,1.2339-3.8584,7.379,7.379,0,0,0-1.06581-3.7746A.42362.42362,0,0,0,339.11371,417.46062Z" transform="translate(-255.75831 -389.08724)"/><path class="a" d="M282.355,399.44912a8.45316,8.45316,0,1,0-10.1505,6.3092A8.44445,8.44445,0,0,0,282.355,399.44912Z" transform="translate(-255.75831 -389.08724)"/><path class="a" d="M258.329,413.36642c-2.5424,7.5679-3.08861,12.4934-2.12246,20.8274,1.169,6.04,5.29178,6.6597,8.71552,6.6162a9.60813,9.60813,0,0,0,2.70454-.2911l2.294-.4018L265.45,444.822a4.70218,4.70218,0,0,0,.1543,6.6297,4.65733,4.65733,0,0,0,6.60353-.156l14.2591-15.0046a4.6888,4.6888,0,0,0-4.1807-7.8571l-12.9309,2.2624a63.88921,63.88921,0,0,1,1.3267-10.4579,36.64127,36.64127,0,0,1-5.97962-3.4085l-.00822-.0056-.03624-.0263a3.7458,3.7458,0,1,1,4.48218-6.0028l.0344.0255c.0504.0352.1333.0938.2492.1725.3366.2266.7061.4611,1.0969.6944.356.2131.8036.4689,1.3308.7506-.2589-2.6225-1.6114-4.9513-3.828-5.5065C264.83353,406.13422,260.21013,407.87342,258.329,413.36642Z" transform="translate(-255.75831 -389.08724)"/><path class="a" d="M268.91191,411.56c-.1235-.0817-.2127-.1433-.2659-.1805-.0257-.0174-.0427-.03-.0522-.0371a3.057,3.057,0,0,0-4.231.5941,2.93763,2.93763,0,0,0,.60482,4.1592c.2905.2001,10.38761,7.6298,26.29031,7.6525q1.8048,0,3.7018-.1359a2.971,2.971,0,1,0-.4469-5.9244c-1.1152.0809-2.1998.1188-3.2545.1196a43.594,43.594,0,0,1-16.6526-3.2959,37.4905,37.4905,0,0,1-4.5491-2.2416C269.54281,411.96962,269.15861,411.72342,268.91191,411.56Z" transform="translate(-255.75831 -389.08724)"/></svg>