<svg xmlns="http://www.w3.org/2000/svg" viewBox="0 0 63 63"><defs><style>.a{fill:#dfb8d8;}</style></defs><path class="a" d="M258.91579,401.32105a31.5,31.5,0,1,0,31.5,31.5A31.53472,31.53472,0,0,0,258.91579,401.32105Zm9.896,41.1223a9.34616,9.34616,0,0,1-3.8318,3.2036,11.99471,11.99471,0,0,1-3.7559.9843v4.2341a1.16632,1.16632,0,0,1-1.1673,1.1673H256.563a1.16634,1.16634,0,0,1-1.1674-1.1673v-4.6001a11.00022,11.00022,0,0,1-1.9554-.6843,8.6943,8.6943,0,0,1-4.1418-3.4344,9.56379,9.56379,0,0,1-1.6059-5.1425,1.16764,1.16764,0,0,1,1.0882-1.2135l3.1377-.2144a1.16756,1.16756,0,0,1,1.2398,1.0272,5.36819,5.36819,0,0,0,.8558,2.5128,4.21129,4.21129,0,0,0,2.0675,1.6075,8.89634,8.89634,0,0,0,6.3413.2061,4.14036,4.14036,0,0,0,1.7081-1.197,2.50261,2.50261,0,0,0,.4699-1.4938,2.02067,2.02067,0,0,0-.4682-1.3504,4.05981,4.05981,0,0,0-1.7956-1.1327c-.5737-.1896-2.0643-.6133-4.333-1.1624a23.706,23.706,0,0,1-5.1343-1.6784,7.9411,7.9411,0,0,1-3.1475-2.7683,7.019,7.019,0,0,1-1.0305-3.751,7.9242,7.9242,0,0,1,1.2481-4.2588,8.12358,8.12358,0,0,1,3.6752-2.9546,9.63746,9.63746,0,0,1,1.7823-.5919v-3.8928a1.1664,1.1664,0,0,1,1.1673-1.1674h3.4938a1.16634,1.16634,0,0,1,1.1673,1.1674v3.6867a14.11772,14.11772,0,0,1,2.9052.7914,8.50068,8.50068,0,0,1,3.8285,3.1607,8.744,8.744,0,0,1,1.4723,4.5737,1.16905,1.16905,0,0,1-1.0898,1.2234l-3.2118.216a1.16358,1.16358,0,0,1-1.2366-1.0074,4.0792,4.0792,0,0,0-1.3471-2.8095,5.51921,5.51921,0,0,0-3.6998-1.0322,6.31263,6.31263,0,0,0-3.7115.8986,2.11213,2.11213,0,0,0-.8985,1.784,1.71,1.71,0,0,0,.5342,1.3405c.1879.1484,1.2135.8161,4.5292,1.5135a40.59941,40.59941,0,0,1,5.8548,1.7098,8.05569,8.05569,0,0,1,3.751,3.0387,7.31009,7.31009,0,0,1,1.2366,4.1665A8.11957,8.11957,0,0,1,268.81179,442.44335Z" transform="translate(-227.41579 -401.32105)"/></svg>