<svg xmlns="http://www.w3.org/2000/svg" viewBox="0 0 71 64"><defs><style>.a{fill:#dfb8d8;}</style></defs><path class="a" d="M258.91579,400.82105s-21.9603,18.9867-34.23265,29.2693a3.70407,3.70407,0,0,0-1.26735,2.7307,3.55278,3.55278,0,0,0,3.55,3.5556h7.1v24.8888a3.55283,3.55283,0,0,0,3.55,3.5556h10.65a3.55283,3.55283,0,0,0,3.55-3.5556v-14.2222h14.2v14.2222a3.55283,3.55283,0,0,0,3.55,3.5556h10.65a3.55283,3.55283,0,0,0,3.55-3.5556v-24.8888h7.1a3.55283,3.55283,0,0,0,3.55-3.5556,3.48657,3.48657,0,0,0-1.3596-2.7307C280.869,419.80775,258.91579,400.82105,258.91579,400.82105Z" transform="translate(-223.41579 -400.82105)"/></svg>